<svg xmlns="http://www.w3.org/2000/svg" width="512" height="512" viewBox="0 0 512 512"><rect width="512" height="512" fill="#FAF8F4"/><line x1="363.5" y1="327.7" x2="270.3" y2="284.7" stroke="#1A1815" stroke-width="2.7" opacity="0.9"/><line x1="363.5" y1="327.7" x2="248.8" y2="349.2" stroke="#1A1815" stroke-width="2.7" opacity="0.9"/><line x1="363.5" y1="327.7" x2="256.0" y2="227.3" stroke="#1A1815" stroke-width="2.7" opacity="0.9"/><line x1="277.5" y1="162.8" x2="227.3" y2="177.2" stroke="#9A968E" stroke-width="2.2" opacity="0.75"/><line x1="227.3" y1="177.2" x2="198.7" y2="248.8" stroke="#9A968E" stroke-width="2.2" opacity="0.75"/><line x1="198.7" y1="248.8" x2="213.0" y2="306.2" stroke="#9A968E" stroke-width="2.2" opacity="0.75"/><line x1="213.0" y1="306.2" x2="248.8" y2="349.2" stroke="#9A968E" stroke-width="2.2" opacity="0.75"/><line x1="248.8" y1="349.2" x2="270.3" y2="284.7" stroke="#9A968E" stroke-width="2.2" opacity="0.75"/><line x1="270.3" y1="284.7" x2="256.0" y2="227.3" stroke="#9A968E" stroke-width="2.2" opacity="0.75"/><line x1="256.0" y1="227.3" x2="277.5" y2="162.8" stroke="#9A968E" stroke-width="2.2" opacity="0.75"/><circle cx="270.3" cy="284.7" r="10.8" fill="#1A1815"/><circle cx="256.0" cy="227.3" r="10.8" fill="#1A1815"/><circle cx="213.0" cy="306.2" r="10.8" fill="#1A1815"/><circle cx="248.8" cy="349.2" r="10.8" fill="#1A1815"/><circle cx="227.3" cy="177.2" r="10.8" fill="#1A1815"/><circle cx="198.7" cy="248.8" r="10.8" fill="#1A1815"/><circle cx="277.5" cy="162.8" r="10.8" fill="#1A1815"/><circle cx="363.5" cy="327.7" r="21.5" fill="#1A1815"/><circle cx="363.5" cy="327.7" r="21.5" fill="none" stroke="#1A1815" stroke-width="2.4"/></svg>